<?xml version="1.0" encoding="utf-8"?>
<!-- Generator: Adobe Illustrator 29.1.0, SVG Export Plug-In . SVG Version: 9.03 Build 55587)  -->
<svg version="1.0" id="Camada_1" xmlns="http://www.w3.org/2000/svg" xmlns:xlink="http://www.w3.org/1999/xlink" x="0px" y="0px"
	 viewBox="0 0 841.89 595.28" enable-background="new 0 0 841.89 595.28" xml:space="preserve">
<g>
	<g>
		<g>
			<path fill="#FFFFFF" d="M446.96,244.11c-0.46-0.04-0.93-0.03-1.4-0.03c-4.65,0-9.31,0.01-13.96-0.01c-0.65,0-1.33,0.18-2.05-0.3
				c-0.94-4.93-1.9-9.93-2.85-14.94c-0.04-0.19,0-0.39,0-0.59c6.57-5.96,4.13-15.41-4.33-17.65c-0.28-0.56-0.16-1.17-0.16-1.75
				c-0.01-3.52-0.01-7.05-0.01-10.57c0-0.47,0.02-0.93-0.02-1.4c-0.08-0.89-0.45-1.53-1.46-1.55c-1-0.02-1.43,0.57-1.52,1.48
				c-0.05,0.46-0.02,0.93-0.02,1.39c0,3.59,0.01,7.18-0.01,10.77c0,0.58,0.17,1.2-0.3,1.78c-4.08,1.05-6.96,3.47-7.78,7.77
				c-0.81,4.26,0.91,7.64,4.26,10.16c-1.03,5.24-2.02,10.29-3.03,15.41c-5.48,0-10.73,0-15.98,0c-1.91,0-2.55,0.38-2.53,1.45
				c0.02,1.07,0.67,1.45,2.58,1.46c4.32,0.01,8.64-0.01,12.97,0.02c0.7,0,1.45-0.22,2.1,0.25c0.24,0.55,0.08,1.09-0.01,1.59
				c-2.57,13.21-5.17,26.41-7.72,39.63c-0.77,3.97-1.7,7.91-2.21,11.92c-0.68,0.96-0.51,2.07-0.67,3.13c0.55-1,0.87-2.06,0.99-3.17
				c4.55-17.36,9.1-34.73,13.65-52.09c0.12-0.46,0.25-0.9,0.65-1.16c3.46,0,6.89,0,10.53,0c4.42,17.91,8.82,35.78,13.23,53.65
				c0.12,1.22,0.48,2.38,1.02,3.49c-0.27-1.26-0.14-2.59-0.72-3.78c-3.33-17.75-6.67-35.5-9.99-53.2c0.93-0.36,1.6-0.24,2.25-0.24
				c4.32-0.01,8.64,0,12.97-0.01c0.53,0,1.07,0,1.59-0.08c0.84-0.13,1.3-0.65,1.23-1.52C448.17,244.64,447.74,244.18,446.96,244.11z
				 M416.63,243.96c1.22-4.63,2.42-9.18,3.59-13.65c0.85-0.23,1.49-0.29,2.3-0.06c1.1,4.48,2.22,9.02,3.37,13.71
				C422.79,243.96,419.83,243.96,416.63,243.96z M420.54,227.19c-3.74-0.08-6.71-3.17-6.69-6.97c0.02-3.7,3.21-6.78,6.94-6.7
				c3.75,0.08,6.72,3.17,6.68,6.96C427.44,224.19,424.26,227.27,420.54,227.19z"/>
			<path fill="#FFFFFF" d="M499.92,243.72c-0.69-0.52-1.45-0.39-2.16-0.4c-1.29-0.01-1.96-0.49-2.48-1.77
				c-0.57-1.4-0.51-2.86-0.98-4.24c-1.53-4.44-2.5-9.04-3.81-13.55c-0.94-3.23-1.78-6.49-2.56-9.77c-0.6-2.51-1.55-4.91-2.09-7.44
				c-0.5-2.31-1.11-4.62-1.79-6.88c-0.74-2.45-1.41-4.89-2.14-7.76c4.61,0.55,8.35,2.9,12.49,4.1c1.66-1.67,1.35-4.36-0.69-5.39
				c-0.77-0.39-1.54-0.77-2.35-1.06c-4.49-1.63-9.05-2.93-13.79-3.72c-5.9-0.98-11.8-0.87-17.68-0.19
				c-5.55,0.64-10.86,2.46-16.16,4.11c-3.9,1.21-7.72,2.74-11.69,3.75c-2.21,0.56-4.49,0.94-6.83,0.96
				c-0.23-0.92-0.19-1.59,0.18-2.28c0.94-1.73,1.81-3.5,2.76-5.23c0.6-1.09,0.56-2.11,0.01-3.2c-0.59-1.16-1.14-2.34-1.69-3.51
				l-5.22-9.68c-0.02-0.01-0.04-0.02-0.06-0.02c-0.06,0.1-0.12,0.21-0.18,0.31c-0.06-0.1-0.12-0.21-0.18-0.31
				c-0.02,0.01-0.04,0.02-0.06,0.02l-5.22,9.68c-0.55,1.18-1.11,2.36-1.69,3.52c-0.55,1.1-0.6,2.11,0.01,3.2
				c0.95,1.73,1.82,3.5,2.76,5.23c0.38,0.69,0.41,1.36,0.18,2.28c-2.35-0.01-4.63-0.4-6.83-0.96c-3.97-1.01-7.79-2.54-11.69-3.75
				c-5.3-1.65-10.61-3.47-16.16-4.11c-5.88-0.68-11.77-0.79-17.68,0.19c-4.73,0.79-9.3,2.08-13.79,3.72
				c-0.81,0.29-1.58,0.67-2.35,1.06c-2.04,1.03-2.35,3.73-0.69,5.39c4.14-1.2,7.89-3.54,12.49-4.1c-0.72,2.87-1.4,5.31-2.14,7.76
				c-0.68,2.26-1.29,4.57-1.79,6.88c-0.55,2.53-1.5,4.93-2.09,7.44c-0.78,3.28-1.62,6.55-2.56,9.77c-1.31,4.51-2.29,9.11-3.81,13.55
				c-0.47,1.38-0.41,2.85-0.98,4.24c-0.53,1.28-1.2,1.76-2.48,1.77c-0.71,0-1.47-0.12-2.16,0.4c-0.27,1.06,0.66,1.65,1.09,2.38
				c1.53,2.57,3.26,4.97,5.86,6.63c1.22,0.77,2.47,1.2,3.89,1.34c3.05,0.29,6.11,0.08,9.17,0.14c3.7,0.07,7.41-0.12,11.12-0.13
				c4.26-0.01,7.12-2.42,9.7-5.43c1.22-1.42,1.8-3.23,3.14-4.67c-0.77-0.72-1.65-0.6-2.47-0.58c-1.84,0.05-2.59-0.37-2.95-2.13
				c-0.63-3.12-1.47-6.19-2.32-9.25c-1.37-4.93-2.67-9.87-4-14.81c-1.58-5.89-3.18-11.79-4.74-17.68c-0.61-2.3-1.58-4.5-1.82-6.9
				c-0.2-2,0.12-2.43,2.16-2.68c4.81-0.59,9.56,0,14.27,0.89c5.14,0.96,10.14,2.45,15.08,4.17c4.09,1.42,8.25,2.66,12.45,3.69
				c7.75,1.91,14.15,1.1,18.54,0c4.21-1.05,8.36-2.27,12.45-3.69c4.94-1.72,9.94-3.21,15.08-4.17c4.71-0.88,9.45-1.48,14.27-0.89
				c2.05,0.25,2.37,0.68,2.16,2.68c-0.25,2.4-1.21,4.6-1.82,6.9c-1.57,5.9-3.16,11.79-4.74,17.68c-1.33,4.94-2.62,9.89-4,14.81
				c-0.85,3.07-1.69,6.13-2.32,9.25c-0.36,1.76-1.1,2.18-2.95,2.13c-0.82-0.02-1.7-0.15-2.47,0.58c1.34,1.44,1.92,3.25,3.14,4.67
				c2.58,3.01,5.44,5.42,9.7,5.43c3.71,0.01,7.41,0.21,11.12,0.13c3.06-0.06,6.11,0.15,9.17-0.14c1.42-0.13,2.67-0.56,3.89-1.34
				c2.61-1.66,4.33-4.06,5.86-6.63C499.27,245.37,500.19,244.78,499.92,243.72z M376.33,242.44c-0.51,1-1.42,0.93-2.27,0.93
				c-6.84,0.03-13.68,0.05-20.52,0.05c-1.74,0-2.16-0.51-1.75-2.2c0.37-1.54,0.88-3.05,1.33-4.57c1.37-4.56,2.49-9.19,3.73-13.78
				c1.84-6.84,3.32-13.78,5.39-20.56c0.41-1.36,0.57-2.98,2.13-4.29C368.42,213.09,372.38,227.78,376.33,242.44z M488.52,243.43
				c-6.84,0-13.68-0.02-20.52-0.05c-0.85,0-1.76,0.07-2.27-0.93c3.95-14.67,7.91-29.35,11.97-44.42c1.56,1.31,1.72,2.93,2.13,4.29
				c2.06,6.78,3.54,13.72,5.39,20.56c1.24,4.59,2.36,9.22,3.73,13.78c0.46,1.52,0.96,3.03,1.33,4.57
				C490.69,242.92,490.27,243.43,488.52,243.43z"/>
		</g>
		<path fill="#FFFFFF" d="M512.19,173.29v-27.08h-27.08c-18.14-12.79-40.25-20.32-64.09-20.32s-45.95,7.52-64.09,20.32h-27.08v27.08
			c-12.79,18.14-20.32,40.25-20.32,64.09s7.52,45.95,20.32,64.09v27.08h27.08c18.14,12.79,40.25,20.32,64.09,20.32
			s45.95-7.52,64.09-20.32h27.08v-27.08c12.79-18.14,20.32-40.25,20.32-64.09S524.99,191.43,512.19,173.29z M329.86,297.84
			c-11.54-17.33-18.27-38.13-18.27-60.46c0-22.34,6.73-43.13,18.27-60.46V297.84z M421.03,127.95c22.34,0,43.13,6.73,60.46,18.27
			H360.56C377.9,134.68,398.69,127.95,421.03,127.95z M331.91,148.26h22.22c-8.41,6.33-15.89,13.81-22.22,22.22V148.26z
			 M331.91,326.5v-22.22c6.33,8.41,13.81,15.89,22.22,22.22H331.91z M421.03,346.81c-22.34,0-43.13-6.73-60.46-18.27h120.93
			C464.16,340.08,443.37,346.81,421.03,346.81z M510.15,326.5h-22.22c8.41-6.33,15.89-13.81,22.22-22.22V326.5z M510.15,300.82
			c-7.08,9.91-15.76,18.6-25.67,25.67H357.58c-9.91-7.08-18.6-15.76-25.68-25.68V173.94c7.08-9.91,15.76-18.6,25.68-25.68h126.89
			c9.91,7.08,18.6,15.76,25.67,25.67V300.82z M510.15,170.48c-6.33-8.41-13.81-15.89-22.22-22.22h22.22V170.48z M512.19,176.91
			c11.54,17.34,18.27,38.13,18.27,60.47c0,22.34-6.73,43.13-18.27,60.47V176.91z"/>
	</g>
	<g>
		<g>
			<path fill="#FFFFFF" d="M264.63,399.14c-0.14,6.81-0.03,13.63-0.07,20.45c-0.01,1.03,0.36,2.21-1.01,3.39
				c-9.69-10.3-19.33-20.54-29.4-31.24c0,11.91-0.01,22.95,0.01,33.99c0,2.49,0.04,4.94-3.48,5.4c3.11,0.5,5.94,0.49,8.78,0.25
				c0.53,0.22,1.01,0.19,1.42-0.29c-0.38-0.49-0.85-0.54-1.38-0.3c-2.67-0.78-2.7-2.95-2.7-5.14c0-6.96-0.02-13.92,0.02-20.88
				c0.01-1.07-0.36-2.25,0.96-3.64c9.67,10.29,19.3,20.55,28.93,30.8c0.86-0.75,0.57-1.49,0.56-2.15
				c-0.04-10.37-0.04-20.73-0.17-31.1c-0.03-2.41,0.29-4.47,3.25-5.88c-3.45,0-6.12,0-9.21,0
				C264.12,394.13,264.69,396.36,264.63,399.14z"/>
			<path fill="#FFFFFF" d="M514.59,392.01c-4.41-0.03-8,0.73-11.13,2.35c-7.65,3.96-11.19,11.38-10.09,21.17
				c0.86,7.66,6.67,14.07,14.5,15.98c16.79,4.11,29.77-6.86,27.48-23.22C533.98,398.55,525.74,392.09,514.59,392.01z M531.18,413.69
				c-0.51,10.33-7.25,17-17,16.92c-9.66-0.07-16.27-6.92-16.67-17.28c-0.02-0.43,0-0.85,0-1.28c0.01-2.56,0.2-5.1,1.09-7.54
				c2.79-7.66,9.35-11.49,18.28-10.62c7.2,0.7,12.99,6.35,14.05,13.85C531.21,409.69,531.28,411.71,531.18,413.69z"/>
			<path fill="#FFFFFF" d="M204.27,392.01c-12.76-0.15-21.45,7.72-21.59,19.55c-0.14,12.32,8.22,20.64,20.9,20.76
				c12.72,0.13,21.64-8.11,21.73-20.07C225.4,400.4,216.83,392.15,204.27,392.01z M219.96,418.79c-2.33,7.94-9.47,12.58-17.93,11.77
				c-8.1-0.78-14.15-6.99-14.95-15.41c-0.09-0.98-0.01-1.98-0.01-2.97c-0.15-2.28,0.11-4.51,0.78-6.71
				c2.27-7.47,8.17-11.77,16.22-11.73c7.78,0.04,13.7,4.34,15.87,11.64C221.26,409.83,221.27,414.34,219.96,418.79z"/>
			<path fill="#FFFFFF" d="M418.81,392.01c-0.67,0.04-1.95,0.08-3.23,0.2c-9.37,0.9-16.5,7.93-17.62,17.37
				c-1.17,9.83,4.01,18.31,13.11,21.43c3.55,1.22,7.21,1.6,10.93,1.2c8.81-0.94,15.5-6.2,17.67-13.81
				C443.74,404.15,434.5,392.11,418.81,392.01z M419.36,430.61c-10.23,0.07-17.2-7.43-17.19-18.52
				c0.01-10.92,6.78-18.29,16.86-18.35c10.18-0.06,17.05,7.14,17.18,18.01C436.34,422.91,429.53,430.54,419.36,430.61z"/>
			<path fill="#FFFFFF" d="M376.38,393.03c-6.79-0.66-13.6-0.15-21.07-0.32c2.25,1.51,3.33,3,3.28,5.43
				c-0.17,9.22-0.11,18.45-0.04,27.68c0.02,2.51-0.72,4.37-2.97,5.7c5.96,0,11.92,0.01,17.88,0c11.56-0.01,21.89-8.59,18.93-24.27
				C390.9,399.35,384.42,393.81,376.38,393.03z M388.33,416.63c-1.46,8.02-7.27,13.01-15.37,13.14c-3.51,0.06-7.02,0.01-10.71,0.01
				c0-11.8,0-23.22,0-35.29c5.47,0.09,10.88-0.7,16.27,0.87c0.27,0.08,0.54,0.18,0.8,0.29C386.4,398.68,390.05,407.17,388.33,416.63
				z"/>
			<path fill="#FFFFFF" d="M558.26,413.97c1.03-0.4,1.71-0.6,2.34-0.91c4.64-2.25,7.11-7.25,6.16-12.39
				c-0.85-4.58-4.36-7.55-9.79-7.8c-4.72-0.22-9.45-0.05-15.19-0.05c3.37,1.57,3.72,3.66,3.7,6.1c-0.08,8.8-0.08,17.61,0,26.42
				c0.02,2.6-0.39,4.8-4.08,6.01c4.3,0,7.52,0,10.73,0c-2.74-1.14-3.21-3.27-3.18-5.89c0.09-7.81,0.03-15.62,0.03-23.43
				c0-2.38,0-4.76,0-7.06c8.95-1.28,12.66,0.4,13.51,6.02c0.48,3.16,0.35,6.26-2.24,8.68c-2.39,2.24-5.49,2.22-9.25,2.31
				c2.9,1.72,4.41,3.55,5.79,5.54c2.1,3.03,4.18,6.08,6.42,9.01c2.99,3.91,6.98,5.5,12.41,4.72
				C566.52,428.31,564.25,419.48,558.26,413.97z"/>
			<path fill="#FFFFFF" d="M333.68,413.96c0.95-0.31,1.51-0.44,2.02-0.67c4.91-2.24,7.54-7.27,6.58-12.56
				c-0.85-4.71-4.46-7.65-10.17-7.88c-4.59-0.19-9.2-0.04-13.79-0.04c2.46,1.51,2.68,3.69,2.67,6.09
				c-0.05,8.95-0.09,17.9,0.02,26.84c0.03,2.58-0.71,4.46-3.23,5.59c2.59,0.2,5,0.21,7.41,0.19c0.83-0.01,1.65-0.1,2.63-0.16
				c-3.24-2.16-3.3-2.19-3.31-5.83c-0.03-6.68-0.01-13.35-0.01-20.03c0-3.52,0-7.04,0-10.48c8.77-1.38,12.63,0.35,13.51,5.94
				c0.4,2.53,0.46,5.12-1.09,7.41c-2.32,3.42-6,3.6-10.67,3.66c3.38,1.64,4.82,3.74,6.28,5.82c1.96,2.78,3.86,5.61,5.89,8.34
				c3.04,4.09,7.09,5.89,12.71,5.09C342.17,428.41,339.89,419.63,333.68,413.96z"/>
			<path fill="#FFFFFF" d="M712.63,431.37c-3.66-1.21-5.11-3.44-6.08-6.19c-0.9-2.53-2.07-4.97-3.11-7.45
				c-3.53-8.42-7.06-16.85-10.7-25.54c-0.53,0.66-0.88,0.94-1.03,1.31c-4.38,10.45-8.76,20.9-13.08,31.38
				c-1.14,2.76-2.37,5.35-5.45,6.48c3.1,0,6.2,0,9.64,0c-1.76-1.15-2.78-2.22-1.92-4.2c1.28-2.96,2.1-6.13,3.78-8.98
				c4.91,0,9.69,0,15,0c0.03,4.5,5.4,8.04,1.83,13.19C704.69,431.37,708.22,431.37,712.63,431.37z M685.27,416.1
				c2.23-5.73,4.35-11.17,6.77-17.36c2.29,6.08,4.32,11.44,6.55,17.36C693.87,416.1,689.8,416.1,685.27,416.1z"/>
			<path fill="#FFFFFF" d="M475.71,391.92c-5.1,0.18-10.13,1.07-15.89,2.54c4.16,0.15,4.32,2.51,4.32,5.02
				c-0.01,8.66-0.03,17.32,0.01,25.98c0.01,2.64-0.41,4.94-3.36,5.91c3.36,0,6.73,0,10.09,0c-2.84-1.08-3.18-3.29-3.12-5.87
				c0.1-4.68,0.03-9.37,0.03-14.05c0-5.52,0-11.03,0-16.42c10.78-3.5,16.87,0.41,16.27,10.14c-0.21,3.44-1.34,6.45-4.81,7.86
				c-3.4,1.39-6.31,0.4-8.83-2.86c0.26,2.94,1.86,4.07,3.76,4.82c4.72,1.87,10.04-0.01,12.47-4.48c2.41-4.42,2.54-9.01,0.02-13.4
				C484.27,392.94,480.17,391.76,475.71,391.92z"/>
			<path fill="#FFFFFF" d="M308,425.8c-4.2-10.2-8.46-20.38-12.78-30.53c-0.4-0.94-0.31-2.34-1.81-2.75
				c-4.66,11.05-9.35,22.07-13.95,33.13c-1.04,2.51-2.33,4.66-5,5.77c2.97,0,5.94,0,8.75,0c-3.41-5.36,1.87-8.84,2.29-13.21
				c5.32,0,10.09,0,15.58,0c-0.44,4.59,5.47,8.01,1.47,13.21c3.38,0,6.78,0,10.17,0C310.21,430.32,309,428.23,308,425.8z
				 M286.43,416.11c2.34-5.96,4.45-11.31,6.83-17.36c2.3,6.16,4.35,11.63,6.5,17.36C295.27,416.11,291.2,416.11,286.43,416.11z"/>
			<path fill="#FFFFFF" d="M174.53,438.49c-3.45,1.13-6.99,1.18-10.53,0.73c-8.36-1.05-16.17-4.09-24.07-6.8
				c-2.38-0.82-2.47-2.75-2.46-4.84c0.04-9.51,0.07-19.03-0.02-28.54c-0.03-2.54,0.17-4.8,3.15-6.16c-3.46,0-6.36,0-10.05,0
				c2.48,1.39,3.3,3.04,3.3,5.17c-0.03,9.37-0.02,18.74-0.01,28.12c0,2.49-0.8,4.39-4.4,4.99c5.44,1.17,9.62,2.91,13.71,4.89
				c3.31,1.6,6.61,3.27,10.04,4.6c8.24,3.18,16.24,2.92,23.76-2.11C176.14,438.21,175.32,438.23,174.53,438.49z"/>
			<path fill="#FFFFFF" d="M159.94,429.73c0-5.77,0-10.97,0-16.54c4.3,0.8,8.7-1.5,12.32,2.23c0-1.19,0-2.19,0-3.18
				c0-1.02,0-2.05,0-3.32c-3.07,3.06-3.75,3.18-12.36,2.39c0-5.45,0-10.92,0-16.36c8.68-1.25,11.63-0.82,14.39,2.04
				c0.12-1.6,0.64-3.23-0.31-4.92c-6.83,1.08-13.65,0.46-20.82,0.95c2.23,1,2.86,2.73,2.86,4.84c-0.03,9.38-0.02,18.76,0,28.14
				c0.01,2.46-0.78,4.38-3.22,5.39c7.23,0,14.47,0,21.95,0c0.9-2.57,1.8-5.11,2.69-7.65C173.57,431.66,166.5,429.54,159.94,429.73z"
				/>
			<path fill="#FFFFFF" d="M621.08,429.69c0-5.47,0-10.66,0-16.39c4.22,0.72,8.58-1.76,12.18,2.13c0.26-2.17,0.37-4.27-0.04-6.14
				c-3.5,4.05-7.9,1.72-12.22,2.18c-0.11-5.92-0.34-11.23,0.17-16.9c3.81,0,7.33-0.02,10.86,0.01c1.58,0.02,2.67,0.83,3.22,2.32
				c-0.23,0.53-0.19,1.01,0.3,1.39c0.47-0.39,0.51-0.87,0.29-1.4c0-1.52,0-3.04,0-4.86c-7.21,1.07-14.17,0.49-21.9,0.8
				c2.75,1.31,3.37,2.92,3.34,5.17c-0.12,9.24-0.11,18.48-0.01,27.72c0.03,2.53-0.5,4.52-4.09,5.6c8.32,0,15.53,0,22.99,0
				c0.72-2.66,2.13-4.98,2.41-8.5C634.79,431.67,627.69,429.55,621.08,429.69z"/>
			<path fill="#FFFFFF" d="M576.55,392.16c0,1.99,0,3.78,0,5.32c3.35-5.86,9.06-1.95,14.15-3.46c0,11.51-0.03,22.14,0.02,32.77
				c0.01,2.35-1.38,3.48-3.66,4.53c3.76,0.29,7.06,0.34,10.57,0c-3.25-2.16-3.35-2.26-3.36-5.93c-0.03-6.96-0.01-13.91-0.01-20.87
				c0-3.22,0-6.44,0-10.56c5.06,1.71,10.59-2.46,14.25,3.73c0.07-1.98,0.36-3.78-0.18-5.53C597.65,392.9,587.2,392.76,576.55,392.16
				z"/>
			<path fill="#FFFFFF" d="M668.63,425.95c-4.24,5.7-10.17,3.31-15.82,3.82c0-10.63,0.04-20.71-0.03-30.78
				c-0.02-2.53,0.2-4.81,3.35-6.19c-3.7,0-6.74,0-10.32,0c2.49,1.34,3.25,3.08,3.23,5.42c-0.08,9.23-0.05,18.47-0.02,27.7
				c0.01,2.42-0.33,4.56-3.15,5.38c7.31,0,14.62,0,22.06,0c0.54-1.61,1.03-3.07,1.52-4.53c0.75-0.57,0.91-1.27,0.47-2.13
				C669.1,424.72,668.9,425.37,668.63,425.95z"/>
			<path fill="#FFFFFF" d="M670.3,423.1c0.02,0.21,0.11,0.42,0.18,0.63c0.1-0.07,0.21-0.13,0.31-0.2c-0.07-0.21-0.14-0.43-0.21-0.64
				C670.48,422.96,670.29,423.04,670.3,423.1z"/>
			<path fill="#FFFFFF" d="M177.02,438.41c0-0.05-0.01-0.1-0.01-0.15C176.8,438.38,176.84,438.42,177.02,438.41z"/>
			<path fill="#FFFFFF" d="M177.03,438.47c-0.03,0.02-0.06,0.03-0.09,0.05c0.03,0.01,0.07,0.02,0.1,0.03l0.08-0.14
				c-0.06,0.01-0.05-0.01-0.09,0C177.02,438.43,177.02,438.45,177.03,438.47z"/>
		</g>
		<g>
			<g>
				<path fill="#FFFFFF" d="M324.61,468.04v0.52c-0.69-0.05-1.62-0.08-2.78-0.08c-1.49,0-2.6,0.03-3.33,0.08v-0.52
					c0.66-0.03,1.13-0.12,1.42-0.25c0.29-0.13,0.43-0.37,0.43-0.71c0-0.3-0.1-0.7-0.31-1.22l-1.58-4.26h-6.29l-1.07,2.75
					c-0.35,0.94-0.52,1.65-0.52,2.13c0,0.54,0.19,0.93,0.56,1.17c0.37,0.24,0.94,0.37,1.7,0.39v0.52c-0.99-0.05-1.99-0.08-2.99-0.08
					c-0.78,0-1.43,0.03-1.95,0.08v-0.52c0.87-0.21,1.55-0.96,2.05-2.26l6.11-15.75h0.42l6.34,16.35
					C323.23,467.45,323.83,468.01,324.61,468.04z M318.24,461.08l-2.91-7.77l-2.96,7.77H318.24z"/>
				<path fill="#FFFFFF" d="M347.97,452.46c1.52,1.53,2.29,3.77,2.29,6.69c0,1.89-0.37,3.54-1.12,4.96
					c-0.75,1.42-1.82,2.52-3.23,3.29c-1.41,0.77-3.1,1.16-5.06,1.16l-1.51-0.03c-0.97-0.04-1.68-0.05-2.13-0.05
					c-1.42,0-2.5,0.03-3.22,0.08v-0.52c0.62-0.03,1.08-0.1,1.37-0.21c0.29-0.1,0.48-0.3,0.58-0.6c0.1-0.29,0.15-0.77,0.15-1.43
					v-12.89c0-0.66-0.05-1.13-0.15-1.43c-0.1-0.3-0.3-0.49-0.58-0.6c-0.29-0.1-0.74-0.17-1.37-0.21v-0.52
					c0.61,0.05,1.45,0.08,2.52,0.08l2.21-0.03c1.18-0.04,1.97-0.05,2.37-0.05C344.15,450.16,346.45,450.93,347.97,452.46z
					 M339.23,450.81c-0.27,0.12-0.46,0.34-0.56,0.65c-0.1,0.31-0.16,0.78-0.16,1.4v12.99c0,0.62,0.05,1.09,0.16,1.4
					c0.1,0.31,0.29,0.53,0.56,0.65c0.27,0.12,0.68,0.18,1.23,0.18c1.84,0,3.28-0.33,4.34-1c1.06-0.67,1.8-1.64,2.22-2.92
					c0.42-1.28,0.64-2.92,0.64-4.91s-0.23-3.62-0.7-4.87c-0.47-1.26-1.23-2.19-2.27-2.82c-1.05-0.62-2.46-0.94-4.25-0.94
					C339.9,450.63,339.5,450.69,339.23,450.81z"/>
				<path fill="#FFFFFF" d="M376.79,450.16v0.52c-0.87,0.21-1.55,0.96-2.05,2.26l-6.11,15.75h-0.21h-0.21l-6.34-16.35
					c-0.41-1.07-1.01-1.63-1.79-1.66v-0.52c0.69,0.05,1.62,0.08,2.78,0.08c1.49,0,2.6-0.03,3.33-0.08v0.52
					c-0.66,0.04-1.13,0.12-1.42,0.25c-0.29,0.13-0.43,0.37-0.43,0.72c0,0.29,0.11,0.7,0.31,1.22l4.7,12.5l4.24-10.99
					c0.35-0.94,0.52-1.65,0.52-2.13c0-0.54-0.19-0.93-0.56-1.17c-0.37-0.24-0.94-0.37-1.7-0.39v-0.52c0.99,0.05,1.98,0.08,2.99,0.08
					C375.63,450.24,376.28,450.21,376.79,450.16z"/>
				<path fill="#FFFFFF" d="M399.11,450.91c1.24,0.75,2.2,1.82,2.88,3.23c0.68,1.41,1.03,3.1,1.03,5.05c0,1.91-0.35,3.6-1.05,5.07
					c-0.7,1.47-1.68,2.61-2.94,3.43c-1.26,0.81-2.68,1.22-4.28,1.22c-1.64,0-3.09-0.37-4.33-1.12c-1.24-0.75-2.2-1.82-2.88-3.24
					c-0.68-1.41-1.03-3.1-1.03-5.05c0-1.91,0.35-3.59,1.05-5.07c0.7-1.47,1.68-2.62,2.94-3.43c1.26-0.82,2.68-1.22,4.28-1.22
					C396.42,449.8,397.87,450.17,399.11,450.91z M391.75,451.42c-0.84,0.77-1.49,1.85-1.95,3.23c-0.46,1.39-0.69,2.97-0.69,4.76
					c0,1.8,0.26,3.39,0.77,4.75c0.51,1.37,1.2,2.43,2.07,3.17c0.87,0.75,1.84,1.12,2.91,1.12c1.11,0,2.08-0.39,2.92-1.16
					c0.84-0.77,1.49-1.85,1.95-3.24c0.46-1.38,0.69-2.97,0.69-4.75c0-1.8-0.26-3.39-0.77-4.76c-0.51-1.37-1.2-2.43-2.07-3.17
					c-0.87-0.75-1.84-1.12-2.91-1.12C393.57,450.26,392.59,450.65,391.75,451.42z"/>
				<path fill="#FFFFFF" d="M425.65,450.22c0.66,0.29,1.38,0.71,2.16,1.26c0.22,0.17,0.4,0.26,0.52,0.26c0.33,0,0.55-0.53,0.65-1.59
					h0.6c-0.07,1.13-0.11,3.12-0.11,5.98h-0.6c-0.16-0.92-0.32-1.68-0.49-2.27c-0.17-0.6-0.44-1.12-0.81-1.57
					c-0.5-0.62-1.16-1.12-1.96-1.48c-0.81-0.36-1.65-0.55-2.53-0.55c-1.14,0-2.15,0.37-3.02,1.12c-0.87,0.75-1.53,1.81-2,3.18
					c-0.47,1.38-0.7,2.98-0.7,4.82c0,3.12,0.5,5.4,1.49,6.85c1,1.45,2.56,2.17,4.69,2.17c1.04,0,1.94-0.27,2.7-0.81
					c0.31-0.21,0.51-0.41,0.61-0.61c0.1-0.2,0.14-0.47,0.14-0.82v-2.5c0-0.73-0.07-1.26-0.21-1.59c-0.14-0.33-0.38-0.55-0.73-0.67
					c-0.35-0.12-0.91-0.2-1.69-0.23v-0.52c0.9,0.05,2.12,0.08,3.67,0.08c1.18,0,2.08-0.03,2.7-0.08v0.52
					c-0.4,0.04-0.69,0.1-0.87,0.21c-0.18,0.1-0.3,0.3-0.36,0.6c-0.06,0.3-0.09,0.77-0.09,1.43v5.15h-0.52
					c-0.02-0.35-0.09-0.68-0.21-1c-0.12-0.32-0.29-0.48-0.49-0.48c-0.1,0-0.21,0.03-0.31,0.08c-0.1,0.05-0.29,0.17-0.55,0.36
					c-0.61,0.47-1.23,0.82-1.89,1.05c-0.65,0.23-1.37,0.35-2.17,0.35c-1.79,0-3.31-0.37-4.59-1.11c-1.27-0.74-2.25-1.8-2.92-3.18
					c-0.68-1.39-1.01-3.04-1.01-4.96c0-1.98,0.36-3.71,1.08-5.21c0.72-1.5,1.71-2.65,2.97-3.46c1.27-0.81,2.7-1.21,4.31-1.21
					C424.16,449.8,424.99,449.94,425.65,450.22z"/>
				<path fill="#FFFFFF" d="M457.13,468.04v0.52c-0.69-0.05-1.62-0.08-2.78-0.08c-1.49,0-2.6,0.03-3.33,0.08v-0.52
					c0.66-0.03,1.13-0.12,1.42-0.25c0.29-0.13,0.43-0.37,0.43-0.71c0-0.3-0.1-0.7-0.31-1.22l-1.58-4.26h-6.29l-1.07,2.75
					c-0.35,0.94-0.52,1.65-0.52,2.13c0,0.54,0.19,0.93,0.56,1.17c0.37,0.24,0.94,0.37,1.7,0.39v0.52c-0.99-0.05-1.99-0.08-2.99-0.08
					c-0.78,0-1.43,0.03-1.95,0.08v-0.52c0.87-0.21,1.55-0.96,2.05-2.26l6.11-15.75h0.42l6.34,16.35
					C455.75,467.45,456.35,468.01,457.13,468.04z M450.76,461.08l-2.91-7.77l-2.96,7.77H450.76z"/>
				<path fill="#FFFFFF" d="M480.49,452.46c1.52,1.53,2.29,3.77,2.29,6.69c0,1.89-0.37,3.54-1.12,4.96
					c-0.75,1.42-1.82,2.52-3.23,3.29c-1.41,0.77-3.1,1.16-5.06,1.16l-1.51-0.03c-0.97-0.04-1.68-0.05-2.13-0.05
					c-1.42,0-2.5,0.03-3.22,0.08v-0.52c0.62-0.03,1.08-0.1,1.37-0.21c0.29-0.1,0.48-0.3,0.58-0.6c0.1-0.29,0.15-0.77,0.15-1.43
					v-12.89c0-0.66-0.05-1.13-0.15-1.43c-0.1-0.3-0.3-0.49-0.58-0.6c-0.29-0.1-0.74-0.17-1.37-0.21v-0.52
					c0.61,0.05,1.45,0.08,2.52,0.08l2.21-0.03c1.18-0.04,1.97-0.05,2.37-0.05C476.67,450.16,478.96,450.93,480.49,452.46z
					 M471.75,450.81c-0.27,0.12-0.46,0.34-0.56,0.65c-0.1,0.31-0.16,0.78-0.16,1.4v12.99c0,0.62,0.05,1.09,0.16,1.4
					c0.1,0.31,0.29,0.53,0.56,0.65c0.27,0.12,0.68,0.18,1.23,0.18c1.84,0,3.28-0.33,4.34-1c1.06-0.67,1.8-1.64,2.22-2.92
					c0.42-1.28,0.64-2.92,0.64-4.91s-0.23-3.62-0.7-4.87c-0.47-1.26-1.23-2.19-2.27-2.82c-1.05-0.62-2.46-0.94-4.25-0.94
					C472.42,450.63,472.01,450.69,471.75,450.81z"/>
				<path fill="#FFFFFF" d="M507.14,450.91c1.24,0.75,2.2,1.82,2.88,3.23c0.68,1.41,1.03,3.1,1.03,5.05c0,1.91-0.35,3.6-1.05,5.07
					c-0.7,1.47-1.68,2.61-2.94,3.43c-1.26,0.81-2.68,1.22-4.28,1.22c-1.64,0-3.09-0.37-4.33-1.12c-1.24-0.75-2.2-1.82-2.88-3.24
					c-0.68-1.41-1.03-3.1-1.03-5.05c0-1.91,0.35-3.59,1.05-5.07c0.7-1.47,1.68-2.62,2.94-3.43c1.26-0.82,2.68-1.22,4.28-1.22
					C504.46,449.8,505.9,450.17,507.14,450.91z M499.79,451.42c-0.84,0.77-1.49,1.85-1.95,3.23c-0.46,1.39-0.69,2.97-0.69,4.76
					c0,1.8,0.26,3.39,0.77,4.75c0.51,1.37,1.2,2.43,2.07,3.17c0.87,0.75,1.84,1.12,2.91,1.12c1.11,0,2.08-0.39,2.92-1.16
					c0.84-0.77,1.49-1.85,1.95-3.24c0.46-1.38,0.69-2.97,0.69-4.75c0-1.8-0.26-3.39-0.77-4.76c-0.51-1.37-1.2-2.43-2.07-3.17
					s-1.84-1.12-2.91-1.12C501.6,450.26,500.63,450.65,499.79,451.42z"/>
				<path fill="#FFFFFF" d="M529.86,450.12c0.44,0.17,0.9,0.4,1.37,0.72c0.38,0.24,0.67,0.36,0.88,0.36c0.15,0,0.28-0.09,0.36-0.27
					c0.09-0.18,0.15-0.47,0.21-0.87h0.6c-0.09,1.01-0.13,2.77-0.13,5.3h-0.6c-0.1-1.4-0.51-2.59-1.21-3.55
					c-0.7-0.96-1.72-1.44-3.06-1.44c-0.93,0-1.7,0.28-2.29,0.84c-0.59,0.56-0.88,1.29-0.88,2.17c0,0.66,0.15,1.23,0.46,1.72
					s0.69,0.9,1.16,1.25c0.47,0.35,1.13,0.79,2,1.32l0.75,0.47c1.09,0.67,1.95,1.27,2.59,1.78c0.63,0.51,1.14,1.1,1.52,1.75
					c0.38,0.66,0.57,1.43,0.57,2.31c0,1.58-0.52,2.79-1.56,3.65c-1.04,0.86-2.36,1.29-3.95,1.29c-0.83,0-1.51-0.09-2.04-0.26
					c-0.53-0.17-1.03-0.41-1.52-0.7c-0.38-0.24-0.68-0.36-0.88-0.36c-0.16,0-0.28,0.09-0.36,0.27s-0.16,0.47-0.21,0.87h-0.6
					c0.07-0.95,0.1-3.03,0.1-6.24h0.6c0.12,1.75,0.55,3.17,1.3,4.26c0.75,1.09,1.89,1.64,3.43,1.64c0.94,0,1.73-0.29,2.39-0.87
					c0.66-0.58,0.99-1.44,0.99-2.59c0-0.97-0.32-1.79-0.98-2.47c-0.65-0.68-1.68-1.44-3.08-2.29c-1.02-0.62-1.85-1.18-2.48-1.66
					c-0.63-0.49-1.15-1.07-1.55-1.75s-0.6-1.49-0.6-2.4c0-1.46,0.47-2.57,1.4-3.34c0.93-0.77,2.1-1.16,3.48-1.16
					C528.81,449.87,529.41,449.96,529.86,450.12z"/>
			</g>
		</g>
	</g>
</g>
</svg>
